<svg xmlns="http://www.w3.org/2000/svg" width="450" height="450" viewBox="0 0 64 64" fill="none">
  <defs>
    <radialGradient id="composeRadial" cx="23.131" cy="18.441" r="42.132" gradientUnits="userSpaceOnUse">
      <stop offset="0" stop-color="#5383EC" />
      <stop offset="0.867" stop-color="#7F52FF" />
    </radialGradient>
    <linearGradient id="composeLinear" x1="44.172" y1="4.377" x2="17.973" y2="34.035" gradientUnits="userSpaceOnUse">
      <stop offset="0" stop-color="#33C3FF" />
      <stop offset="0.878" stop-color="#5383EC" />
    </linearGradient>
  </defs>
  <path d="M56.25 18V46L32 60L7.75 46V18L32 4L56.25 18Z" fill="#6075F2" />
  <path d="M41.5 26.5V37.5L32 43V60L56.25 46V18L41.5 26.5Z" fill="#6B57FF" />
  <path d="M32 43L22.5 37.5V26.5L7.75 18V46L32 60V43Z" fill="url(#composeRadial)" />
  <path d="M22.5 26.5L32 21L41.5 26.5L56.25 18L32 4L7.75 18L22.5 26.5Z" fill="url(#composeLinear)" />
  <path d="M32 21L41.526 26.5V37.5L32 43L22.474 37.5V26.5L32 21Z" fill="#000000" />
</svg>

